<svg width="314" height="280" viewBox="0 0 314 280" fill="none" xmlns="http://www.w3.org/2000/svg">
<g style="mix-blend-mode:soft-light" opacity="0.5">
<path d="M-14 143.07H92.3C92.3 143.07 84.7 119.77 71.9 123.17C59.1 126.47 59.6 129.37 59.6 129.37C59.6 129.37 55.8 109.47 38.7 112.27C21.6 115.07 17.8 128.87 17.8 128.87C17.8 128.87 6.90001 124.57 2.10001 128.87C-2.59999 133.17 -1.69998 135.47 -1.69998 135.47C-1.69998 135.47 -12.1 130.77 -14 143.07Z" fill="white"/>
</g>
<g style="mix-blend-mode:soft-light" opacity="0.8">
<path d="M267 100.216C265.8 96.8161 263.1 90.9161 258.9 89.5161C252.9 87.5161 244 94.1161 244 94.1161C244 94.1161 239.7 78.6161 225.3 78.0161C210.9 77.4161 213.5 93.8161 213.5 93.8161C213.5 93.8161 209.8 92.7161 202.3 90.4161C194.8 88.1161 192.2 95.0161 192.2 95.0161C187.5 93.3161 185.6 97.8161 185 100.216H267Z" fill="white"/>
</g>
<path d="M43.7 0C43.7 0 43.5 2.6 41 2.9C43.5 3.2 43.7 5.8 43.7 5.8C43.7 5.8 43.9 3.2 46.4 2.9C43.9 2.7 43.7 0 43.7 0Z" fill="#FFD08A"/>
<path d="M177.7 41C177.7 41 177.5 43.6 175 43.9C177.5 44.2 177.7 46.8 177.7 46.8C177.7 46.8 177.9 44.2 180.4 43.9C177.9 43.7 177.7 41 177.7 41Z" fill="#FFD08A"/>
<path d="M79.7 31C79.7 31 79.5 33.6 77 33.9C79.5 34.2 79.7 36.8 79.7 36.8C79.7 36.8 79.9 34.2 82.4 33.9C79.9 33.7 79.7 31 79.7 31Z" fill="#FFD08A"/>
<path d="M299.7 100C299.7 100 299.5 102.6 297 102.9C299.5 103.2 299.7 105.8 299.7 105.8C299.7 105.8 299.9 103.2 302.4 102.9C299.8 102.7 299.7 100 299.7 100Z" fill="#FFD08A"/>
<path d="M139.1 70C139.1 70 138.6 77 132 77.6C138.6 78.3 139.1 85.2 139.1 85.2C139.1 85.2 139.6 78.2 146.2 77.6C139.6 77 139.1 70 139.1 70Z" fill="#FFD08A"/>
<path d="M15.1 58.7C15.1 58.7 14.6 65.7 8 66.3C14.6 67 15.1 73.9 15.1 73.9C15.1 73.9 15.6 66.9 22.2 66.3C15.6 65.7 15.1 58.7 15.1 58.7Z" fill="#FFD08A"/>
<path d="M132.2 0C132.2 0 131.8 5.1 127 5.6C131.8 6.1 132.2 11.2 132.2 11.2C132.2 11.2 132.6 6.1 137.4 5.6C132.6 5 132.2 0 132.2 0Z" fill="#FFD08A"/>
<path d="M58.6 95C58.6 95 58.3 99.5 54 100C58.3 100.4 58.6 105 58.6 105C58.6 105 58.9 100.5 63.2 100C59 99.5 58.6 95 58.6 95Z" fill="#FFD08A"/>
<g style="mix-blend-mode:soft-light" opacity="0.5">
<path d="M237.8 168.5H344.1C344.1 168.5 336.5 145.2 323.7 148.6C310.9 151.9 311.4 154.8 311.4 154.8C311.4 154.8 307.6 134.9 290.5 137.7C273.4 140.5 269.6 154.3 269.6 154.3C269.6 154.3 258.7 150 253.9 154.3C249.2 158.6 250.1 160.9 250.1 160.9C250.1 160.9 239.7 156.2 237.8 168.5Z" fill="white"/>
</g>
<path d="M216.366 135.809C216.366 134.744 214.292 133.336 210.108 131.58C205.94 129.821 202.854 129.107 200.888 129.474C200.175 129.648 199.895 129.945 200.087 130.395C200.799 132.241 202.323 135.408 204.663 139.912C210.762 138.051 214.665 136.695 216.366 135.809ZM141.247 182.046C140.343 174.477 137.114 163.117 131.546 147.968C126.154 133.441 123.479 126.396 123.479 126.83C123.479 124.184 124.187 120.534 125.623 115.872C125.889 115.071 126.439 115.071 127.24 115.872C129.117 117.888 131.688 122.255 134.917 128.933C138.958 137.318 141.921 145.634 143.799 153.914C145.593 163.517 147.436 173.122 149.318 182.722C151.019 190.831 154.032 198.309 158.343 205.181C162.029 211.251 167.548 215.705 174.906 218.525C174.906 208.574 177.546 201.998 182.85 198.83C187.337 196.188 195.142 192.76 206.275 188.532H155.914C154.567 188.532 153.697 188.377 153.289 188.064C152.897 187.751 152.774 186.985 152.951 185.75C153.501 180.113 155.241 175.485 158.2 171.888C166.733 161.396 180.598 151.479 199.806 142.154C199.005 140.746 197.836 138.504 196.311 135.408C195.599 133.997 195.245 132.207 195.245 129.995C195.245 126.551 196.134 123.697 197.924 121.402C199.998 118.499 203.085 117.053 207.218 117.053C210.462 117.053 215.073 119.073 221.085 123.124C227.469 127.352 230.659 130.882 230.659 133.702C229.754 137.496 228.639 141.006 227.291 144.261C222.165 145.775 215.977 147.617 208.707 149.829C208.973 153.967 208.565 156.039 207.484 156.039C206.683 156.039 205.833 154.492 204.928 151.393C199.36 153.514 192.32 157.168 183.789 162.37C175.614 167.379 169.692 171.797 166.02 175.572C170.773 175.923 177.728 176.112 186.894 176.112C197.924 176.112 211.794 175.836 228.496 175.312C245.184 174.79 252.777 174.53 251.249 174.53C252.137 174.53 252.688 174.651 252.864 174.911C252.953 175.104 252.811 175.659 252.456 176.633L249.228 184.689C248.855 185.663 248.146 186.324 247.065 186.671C201.649 200.866 178.951 209.582 178.951 212.837C178.951 215.566 185.902 220.02 199.806 226.197C200.529 226.544 200.849 227.205 200.761 228.179L199.806 236.896C199.625 237.87 199.005 238.357 197.924 238.357C193.614 238.357 188.187 237.296 181.626 235.17C172.478 232.18 165.205 228.092 159.813 222.89C154.794 217.949 151.019 211.964 148.517 204.92C147.082 200.779 145.416 193.734 143.534 183.768C143.534 185.542 143.445 187.158 143.268 188.657C142.806 192.1 142.133 194.481 141.247 195.788C134.597 205.478 125.977 214.211 115.39 221.949C104.168 230.146 94.6086 234.249 86.7151 234.249C82.0501 234.249 78.5063 232.301 76.0739 228.425C74.0187 225.257 72.9911 221.342 72.9911 216.666C72.9911 207.427 74.9576 197.996 78.9142 188.397C79.7989 186.377 80.4383 185.369 80.792 185.349C80.9694 185.456 81.058 185.663 81.058 186.01C81.058 186.637 80.8807 187.645 80.527 189.057C77.7438 198.57 76.3586 205.615 76.3586 210.19C76.3586 213.792 77.5132 216.575 79.8531 218.508C81.8196 220.175 84.3939 221.028 87.5308 221.028C96.044 221.028 107.039 215.74 120.516 205.165C133.074 195.301 139.989 187.595 141.247 182.046Z" fill="white"/>
<path d="M194.149 102.564C194.557 101.277 194.645 100.005 194.43 98.7176C194.164 97.3095 193.51 96.6146 192.478 96.6146C191.982 96.6146 191.309 96.8408 190.458 97.3095C189.607 97.7618 189.181 98.2151 189.181 98.649C189.181 99.6763 190.832 100.964 194.149 102.564ZM191.593 108.25C187.426 106.128 185.332 103.901 185.332 101.572C185.332 98.7514 186.663 96.1807 189.308 93.8477C191.967 91.5176 194.164 90.6459 195.904 91.2721C197.393 91.794 198.12 93.3606 198.12 95.9536C198.12 98.2827 197.64 100.91 196.646 103.814C198.759 104.999 200.087 106.026 200.618 106.86C200.618 107.955 199.679 109.816 197.781 112.462C197.25 111.624 195.973 110.616 193.953 109.434C191.628 112.599 188.668 115.486 185.066 118.08C180.987 121.036 177.231 123.263 173.825 124.758C173.113 125.109 169.16 126.586 161.979 129.179C160.86 129.579 160.117 129.787 159.762 129.787C159.586 129.787 159.497 129.734 159.497 129.648C159.497 129.387 160.117 128.846 161.375 128.066C166.659 124.985 171.982 121.875 177.32 118.74C183.7 114.965 188.452 111.45 191.593 108.25Z" fill="white"/>
<path d="M149.938 145.341C162.403 140.885 175.649 136.156 189.643 131.127C190.37 130.866 190.796 130.779 190.919 130.866C191.116 130.987 191.062 131.369 190.796 131.981C189.981 133.928 189.342 135.094 188.846 135.495C177.088 139.633 163.342 144.887 147.648 151.29C148.129 149.478 148.89 147.496 149.938 145.341Z" fill="white"/>
<path d="M162.491 113.21C162.491 114.932 162.102 116.706 161.341 118.548C160.309 120.934 158.981 122.134 157.369 122.134C154.814 122.134 152.985 120.409 151.904 116.966C150.699 121.384 148.483 123.596 145.238 123.596C144.03 123.596 142.983 122.984 142.079 121.802C141.051 120.394 140.54 118.548 140.54 116.253V110.824C140.54 110.39 140.22 110.077 139.616 109.903C139.012 109.729 138.711 109.276 138.711 108.513C138.711 107.329 139.228 106.162 140.255 105.014C141.194 104.006 141.921 103.501 142.398 103.501C143.037 103.501 143.357 104.685 143.357 107.068C143.357 108.303 143.253 109.329 143.056 110.182C142.845 111.017 142.757 111.749 142.757 112.357C142.757 113.625 143.022 114.86 143.553 116.06C144.192 117.419 144.973 118.114 145.912 118.114C147.136 118.114 148.271 117.574 149.318 116.48C150.38 115.399 150.911 114.15 150.911 112.686C150.911 111.851 150.665 110.424 150.168 108.389C149.672 106.373 149.422 105.101 149.422 104.614C149.422 104.18 149.653 103.485 150.095 102.546C150.557 101.59 150.877 101.118 151.107 101.118C151.515 101.118 152.046 102.459 152.686 105.154C153.344 107.834 153.679 109.816 153.679 111.104C153.679 114.791 155.133 116.653 158.042 116.653C159.301 116.653 160.082 116.027 160.402 114.791C157.88 110.477 156.622 107.174 156.622 104.879C156.622 103.572 156.961 102.39 157.634 101.379C158.092 100.684 158.397 100.303 158.573 100.265C158.75 100.265 158.893 100.703 158.981 101.59C159.124 102.806 159.316 103.833 159.586 104.614C159.635 104.701 160.24 106.234 161.41 109.174C162.122 110.949 162.491 112.289 162.491 113.21Z" fill="white"/>
<path d="M124.064 98.0566C136.529 93.6061 149.776 88.8715 163.769 83.8431C164.496 83.5822 164.924 83.4962 165.047 83.5822C165.243 83.7068 165.189 84.0886 164.924 84.6965C164.108 86.6439 163.469 87.8104 162.972 88.2114C151.216 92.3526 137.468 97.6033 121.775 104.006C122.255 102.198 123.018 100.216 124.064 98.0566Z" fill="white"/>
<path d="M138.55 214.887C139.9 214.887 141.798 215.813 144.245 217.687C146.694 219.567 148.021 221.187 148.252 222.543C148.287 222.91 147.967 223.811 147.293 225.29C146.621 226.771 146.159 227.552 145.893 227.639C143.696 228.247 141.494 228.839 139.297 229.413C136.549 230.301 134.651 231.346 133.57 232.528C136.618 241.607 138.162 250.566 138.162 259.422C138.162 262.031 137.861 264.658 137.276 267.354C137.045 268.275 136.868 268.762 136.726 268.815C136.46 268.815 136.333 267.267 136.333 264.19C136.333 259.074 135.571 252.917 134.047 245.714C132.523 238.511 131.762 234.37 131.762 233.309C131.762 229.746 132.788 227.137 134.843 225.449C135.837 224.664 137.7 223.864 140.432 223.082C139.315 221.969 138.235 221.429 137.203 221.429C136.706 221.429 136.018 222.003 135.113 223.152C134.225 224.298 133.708 224.873 133.57 224.857C133.339 224.873 133.285 224.385 133.374 223.411C133.993 217.725 135.733 214.887 138.55 214.887Z" fill="white"/>
<path d="M245.31 152.853C245.271 152.14 244.952 151.29 244.318 150.298C243.678 149.304 243.04 148.765 242.366 148.662C241.265 148.489 240.292 148.856 239.476 149.742C240.45 150.924 242.027 152.211 244.156 153.619C244.617 153.914 244.918 154.001 245.06 153.88C245.222 153.778 245.291 153.427 245.31 152.853ZM236.228 147.444C236.743 147.028 237.24 147.081 237.702 147.602C239.884 144.468 241.958 143.042 243.91 143.355C245.184 143.547 246.303 144.521 247.223 146.28C248.146 148.017 248.431 149.965 248.073 152.09C247.97 152.838 247.758 153.585 247.454 154.332C246.161 157.568 244.775 159.063 243.305 158.841C242.027 158.648 240.45 157.689 238.606 155.968C236.921 154.506 235.732 153.132 235.043 151.864C233.249 155.326 231.175 158.021 228.835 159.917C224.898 163.151 219.845 165.813 213.637 167.92C208.776 169.622 205.764 170.389 204.609 170.199C204.432 170.181 201.772 170.355 196.631 170.774C191.185 171.207 187.798 171.449 186.433 171.449C184.481 171.468 183.508 171.381 183.542 171.207C183.562 171.068 184.624 170.721 186.698 170.162C192.498 168.874 201.399 166.512 213.407 163.084C222.288 160.004 228.123 157.013 230.856 154.091C232.152 152.279 233.941 150.07 236.228 147.444Z" fill="white"/>
<path d="M235.82 228.946C231.337 232.909 225.571 234.895 218.533 234.895C216.331 234.895 214.542 234.321 213.141 233.208C211.756 232.075 211.067 230.667 211.067 228.946C211.067 225.898 212.36 222.857 214.965 219.828C217.52 217.134 220.11 214.453 222.696 211.756C223.247 211.202 223.089 210.748 222.238 210.451C220.303 209.79 218.228 209.461 216.031 209.461C214.823 209.461 213.494 209.79 212.059 210.451C211.756 210.575 211.544 210.59 211.455 210.504C211.366 210.417 211.401 210.209 211.524 209.843C212.428 207.74 213.353 206.328 214.292 205.615C215.412 204.747 217.147 204.312 219.472 204.312C224.721 204.312 227.345 205.565 227.345 208.068C227.345 209.964 225.66 212.644 222.288 216.125C219.914 218.508 217.54 220.908 215.161 223.324C214.134 224.649 213.618 225.759 213.618 226.684C213.618 228.805 216.031 229.867 220.887 229.867C225.321 229.867 230.128 229.119 235.289 227.623C236.725 227.223 237.452 227.118 237.452 227.292C237.452 227.465 236.901 228.024 235.82 228.946Z" fill="white"/>
<path d="M157.812 244.861C159.851 244.861 161.891 246.775 163.931 250.637C165.774 254.152 167.067 258.066 167.795 262.415C167.868 262.831 167.902 263.076 167.902 263.144C167.991 263.265 168.045 263.265 168.079 263.144C168.114 263.076 168.221 262.831 168.364 262.415C168.911 258.674 169.941 253.752 171.485 247.643C172.935 244.201 174.533 242.494 176.272 242.494C177.158 242.494 178.043 243.068 178.931 244.235C179.694 245.261 180.082 246.096 180.082 246.722C180.082 247.229 179.944 247.87 179.674 248.655C179.321 249.716 178.931 250.237 178.47 250.237C178.273 250.237 177.851 249.837 177.193 249.018C176.538 248.217 175.864 247.817 175.172 247.817C173.752 247.817 172.139 252.706 170.331 262.465C169.745 265.564 169.126 267.754 168.414 269.041C167.918 269.913 167.494 270.347 167.155 270.347C166.856 270.347 166.694 269.947 166.694 269.147C166.694 267.859 165.863 264.798 164.211 259.962C162.526 254.986 161.395 252.499 160.81 252.499C160.382 252.499 160.117 252.619 159.994 252.899C159.885 253.159 159.532 253.299 158.962 253.299C158.308 253.299 157.458 252.812 156.392 251.871C155.329 250.932 154.814 250.184 154.814 249.61C154.814 249.35 155.256 248.497 156.126 247.035C157.011 245.575 157.581 244.861 157.812 244.861Z" fill="white"/>
<path d="M118.246 254.117C118.334 253.891 118.442 253.752 118.53 253.68C118.599 253.631 118.654 253.646 118.672 253.733C118.708 253.82 118.708 253.978 118.672 254.204C118.461 255.994 117.926 257.595 117.11 259.022C116.294 260.43 115.409 261.144 114.451 261.144C113.389 261.163 112.589 260.641 112.042 259.528C111.507 258.429 111.261 256.953 111.329 255.092C111.418 252.792 112.323 249.437 114.008 245.001C115.498 241.105 116.776 238.337 117.856 236.703C118.334 235.971 118.672 235.59 118.831 235.571C118.85 235.695 118.708 236.111 118.388 236.842C115.975 242.094 114.436 246.342 113.724 249.576C113.443 250.863 113.3 252.03 113.3 253.072C113.3 254.519 113.566 255.613 114.116 256.327C114.524 256.935 114.967 257.179 115.409 257.089C116.332 256.9 117.287 255.907 118.246 254.117Z" fill="white"/>
<path d="M244.937 211.289C245.025 211.063 245.133 210.922 245.222 210.851C245.291 210.802 245.345 210.817 245.36 210.904C245.398 210.99 245.398 211.149 245.36 211.376C245.148 213.165 244.617 214.766 243.801 216.192C242.986 217.601 242.101 218.315 241.142 218.315C240.076 218.333 239.279 217.812 238.73 216.699C238.199 215.6 237.948 214.124 238.021 212.263C238.11 209.964 239.014 206.607 240.7 202.171C242.189 198.276 243.463 195.509 244.544 193.874C245.025 193.142 245.36 192.76 245.522 192.746C245.541 192.866 245.398 193.281 245.079 194.014C242.666 199.269 241.123 203.512 240.415 206.747C240.131 208.035 239.988 209.201 239.988 210.243C239.988 211.689 240.254 212.784 240.803 213.497C241.211 214.105 241.654 214.35 242.101 214.263C243.02 214.071 243.979 213.079 244.937 211.289Z" fill="white"/>
<path d="M207.253 253.053C207.322 252.917 207.376 252.812 207.449 252.759C207.518 252.706 207.553 252.725 207.553 252.778C207.587 252.846 207.587 252.966 207.553 253.125C206.933 256.466 205.921 258.135 204.504 258.135C203.016 258.135 202.269 256.9 202.269 254.446C202.269 251.438 203.154 248.27 204.928 244.967C205.37 244.148 205.64 243.732 205.729 243.714C205.744 243.714 205.764 243.714 205.764 243.748C205.764 243.906 205.64 244.355 205.37 245.14C204.22 248.584 203.65 251.004 203.65 252.378C203.65 254.254 204.167 255.212 205.194 255.212C205.798 255.212 206.491 254.48 207.253 253.053Z" fill="white"/>
<path d="M239.741 163.986C239.741 165.153 239.245 166.458 238.287 167.935C237.294 169.468 235.997 170.789 234.438 171.868C233.818 172.302 233.445 172.53 233.322 172.53C233.303 172.53 233.303 172.51 233.303 172.495C233.303 172.389 233.568 172.076 234.084 171.502C236.674 168.735 237.967 166.893 237.967 165.971C237.967 165.084 237.54 164.65 236.709 164.65C236.267 164.65 235.839 164.771 235.466 165.013C235.201 165.187 235.023 165.292 234.954 165.311C234.916 165.273 234.846 165.24 234.773 165.224C234.811 165.119 234.846 164.892 234.916 164.511C235.342 162.596 236.301 161.657 237.825 161.657C239.103 161.657 239.741 162.438 239.741 163.986Z" fill="white"/>
<path d="M101.667 240.391C101.667 241.558 101.17 242.86 100.211 244.34C99.2183 245.869 97.9257 247.194 96.3632 248.27C95.7435 248.704 95.3701 248.931 95.247 248.931C95.2273 248.931 95.2273 248.916 95.2273 248.897C95.2273 248.791 95.4933 248.481 96.0085 247.904C98.5986 245.14 99.8922 243.294 99.8922 242.373C99.8922 241.486 99.4646 241.052 98.6341 241.052C98.1907 241.052 97.7642 241.173 97.3908 241.418C97.1248 241.592 96.9484 241.694 96.8785 241.713C96.84 241.678 96.7711 241.645 96.7021 241.626C96.7366 241.52 96.7711 241.294 96.84 240.912C97.2676 238.998 98.2252 238.058 99.7494 238.058C101.027 238.058 101.667 238.844 101.667 240.391Z" fill="white"/>
<path d="M203.474 211.723C203.474 212.889 202.977 214.192 202.023 215.671C201.026 217.2 199.733 218.525 198.174 219.603C197.551 220.036 197.181 220.262 197.054 220.262C197.039 220.262 197.039 220.248 197.039 220.228C197.039 220.124 197.305 219.813 197.816 219.236C200.406 216.472 201.703 214.626 201.703 213.705C201.703 212.818 201.276 212.384 200.44 212.384C199.998 212.384 199.575 212.504 199.202 212.75C198.936 212.923 198.759 213.025 198.686 213.044C198.651 213.01 198.582 212.976 198.509 212.958C198.544 212.851 198.582 212.625 198.651 212.244C199.079 210.33 200.033 209.39 201.561 209.39C202.835 209.39 203.474 210.175 203.474 211.723Z" fill="white"/>
<path d="M177.458 96.3537C177.531 96.1952 177.585 96.0899 177.655 96.056C177.708 96.0029 177.742 96.0222 177.762 96.0744C177.796 96.143 177.796 96.2667 177.762 96.4223C177.6 97.7096 177.231 98.8761 176.642 99.9025C176.057 100.91 175.422 101.431 174.71 101.431C173.967 101.451 173.383 101.065 172.99 100.265C172.602 99.484 172.424 98.4035 172.478 97.0824C172.528 95.4481 173.044 93.3413 173.983 90.786C174.799 88.6115 175.511 87.0826 176.131 86.1954C176.538 85.689 176.769 85.4097 176.823 85.3942C176.858 85.4812 176.75 85.776 176.519 86.2969C175.137 89.3431 174.267 92.141 173.914 94.7001C173.879 94.9949 173.86 95.2896 173.86 95.5873C173.86 97.6226 174.375 98.5968 175.402 98.5098C176.042 98.4412 176.715 97.728 177.458 96.3537Z" fill="white"/>
<path d="M110.46 103.764C111.099 103.764 111.723 103.485 112.288 102.946C112.961 102.304 113.3 101.518 113.3 100.564C113.3 99.5178 112.696 98.9969 111.491 98.9969C110.956 98.9969 110.498 99.1515 110.106 99.484C110.106 98.8568 110.548 97.9164 111.418 96.6291C112.219 95.4288 112.996 94.474 113.778 93.7791C113.954 93.5674 114.028 93.3945 113.954 93.2398C113.901 93.0997 113.778 93.0813 113.566 93.205C112.553 93.8129 111.472 94.9417 110.322 96.6291C109.009 98.5098 108.351 100.13 108.351 101.485C108.351 102.998 109.044 103.764 110.46 103.764Z" fill="white"/>
<path d="M226.211 122.081C226.633 122.081 227.041 121.889 227.434 121.523C227.877 121.108 228.107 120.587 228.107 119.942C228.107 119.247 227.699 118.899 226.903 118.899C226.546 118.899 226.245 119.02 225.979 119.227C225.979 118.813 226.264 118.186 226.849 117.314C227.38 116.514 227.896 115.886 228.427 115.419C228.55 115.279 228.585 115.158 228.531 115.052C228.516 114.965 228.427 114.95 228.284 115.037C227.612 115.437 226.883 116.2 226.122 117.314C225.233 118.567 224.81 119.647 224.81 120.549C224.81 121.56 225.272 122.081 226.211 122.081Z" fill="white"/>
<path d="M87.5308 198.883C88.8273 198.883 89.9781 199.631 91.0056 201.129C92.0372 202.64 92.7642 204.607 93.1731 207.027C93.2223 207.268 93.2421 207.427 93.2421 207.461C93.2962 207.528 93.3307 207.528 93.3495 207.461C93.3652 207.427 93.4381 207.268 93.5268 207.027C93.7386 205.581 94.2351 203.406 95.0509 200.537C95.9208 198.483 96.8785 197.457 97.9257 197.457C98.4568 197.457 98.9878 197.804 99.5031 198.503C99.9809 199.111 100.211 199.616 100.211 199.997C100.211 200.292 100.123 200.677 99.9612 201.164C99.7494 201.79 99.5188 202.119 99.238 202.119C99.1109 202.119 98.8646 201.877 98.4715 201.39C98.0834 200.903 97.6755 200.658 97.2676 200.658C96.3435 200.658 95.4775 202.798 94.6962 207.061C94.3583 208.922 93.9691 210.228 93.5613 211.009C93.2608 211.53 93.0105 211.791 92.7997 211.791C92.6027 211.791 92.515 211.55 92.515 211.077C92.515 210.33 92.0913 208.869 91.2027 206.714C90.3327 204.554 89.6933 203.478 89.3397 203.478C89.0736 203.478 88.916 203.546 88.8431 203.704C88.7741 203.86 88.5771 203.946 88.2234 203.946C87.8352 203.946 87.319 203.652 86.6806 203.093C86.0609 202.519 85.7417 202.066 85.7417 201.737C85.7417 201.579 86.0067 201.058 86.5229 200.19C87.054 199.317 87.388 198.883 87.5308 198.883Z" fill="white"/>
<path d="M80.8462 126.465C80.8462 127.632 80.3497 128.933 79.3911 130.413C78.398 131.946 77.1054 133.268 75.5428 134.344C74.9231 134.781 74.5497 135.007 74.4266 135.007C74.4079 135.007 74.4079 134.989 74.4079 134.97C74.4079 134.868 74.6729 134.555 75.1891 133.981C77.7792 131.214 79.0718 129.371 79.0718 128.446C79.0718 127.559 78.6482 127.125 77.8137 127.125C77.3704 127.125 76.9438 127.246 76.5743 127.491C76.3044 127.665 76.1281 127.771 76.0581 127.786C76.0236 127.752 75.9507 127.718 75.8817 127.699C75.9162 127.597 75.9507 127.371 76.0236 126.986C76.4473 125.071 77.4058 124.135 78.93 124.135C80.2068 124.135 80.8462 124.917 80.8462 126.465Z" fill="white"/>
<path d="M69.7626 199.004C69.7626 199.79 69.4237 200.658 68.7892 201.65C68.1311 202.678 67.2612 203.546 66.2139 204.278C65.806 204.554 65.5597 204.712 65.4908 204.712C65.4711 204.712 65.4711 204.694 65.4711 204.678C65.4711 204.626 65.6484 204.399 65.9873 204.033C67.7232 202.191 68.5922 200.953 68.5922 200.329C68.5922 199.755 68.3075 199.458 67.7577 199.458C67.4375 199.458 67.1725 199.529 66.9262 199.703C66.7302 199.824 66.6218 199.891 66.5715 199.891C66.5331 199.876 66.4986 199.842 66.4445 199.842C66.4642 199.771 66.4986 199.616 66.5528 199.355C66.8178 198.083 67.476 197.457 68.4848 197.457C69.335 197.457 69.7626 197.982 69.7626 199.004Z" fill="white"/>
<path d="M156.553 233.275C156.553 234.061 156.215 234.929 155.575 235.921C154.921 236.945 154.052 237.817 153.005 238.545C152.597 238.825 152.351 238.983 152.278 238.983C152.258 238.983 152.258 238.965 152.258 238.945C152.258 238.896 152.439 238.67 152.774 238.304C154.513 236.458 155.379 235.224 155.379 234.596C155.379 234.023 155.098 233.728 154.548 233.728C154.228 233.728 153.963 233.796 153.713 233.97C153.52 234.095 153.413 234.162 153.358 234.162C153.324 234.147 153.289 234.109 153.235 234.109C153.255 234.042 153.289 233.883 153.344 233.622C153.609 232.354 154.263 231.728 155.276 231.728C156.126 231.728 156.553 232.249 156.553 233.275Z" fill="white"/>
<path d="M191.293 255.02C191.293 255.806 190.955 256.674 190.316 257.666C189.661 258.69 188.791 259.561 187.745 260.29C187.337 260.569 187.091 260.728 187.017 260.728C187.002 260.728 187.002 260.71 187.002 260.69C187.002 260.641 187.18 260.415 187.514 260.049C189.253 258.203 190.123 256.968 190.123 256.341C190.123 255.768 189.839 255.473 189.288 255.473C188.969 255.473 188.703 255.541 188.452 255.715C188.26 255.84 188.153 255.907 188.099 255.907C188.064 255.892 188.03 255.854 187.976 255.854C187.995 255.787 188.03 255.628 188.083 255.367C188.349 254.099 189.003 253.473 190.015 253.473C190.866 253.473 191.293 253.994 191.293 255.02Z" fill="white"/>
<path d="M214.311 103.085C214.311 103.867 213.972 104.739 213.333 105.728C212.679 106.755 211.81 107.626 210.762 108.355C210.355 108.634 210.108 108.789 210.035 108.789C210.02 108.789 210.02 108.774 210.02 108.755C210.02 108.703 210.197 108.476 210.532 108.113C212.271 106.267 213.141 105.033 213.141 104.406C213.141 103.833 212.856 103.538 212.305 103.538C211.986 103.538 211.721 103.606 211.475 103.78C211.278 103.901 211.17 103.972 211.116 103.972C211.082 103.954 211.047 103.919 210.993 103.919C211.013 103.851 211.047 103.693 211.101 103.433C211.366 102.164 212.021 101.538 213.033 101.538C213.884 101.538 214.311 102.059 214.311 103.085Z" fill="white"/>
<path d="M147.721 260.815C148.144 260.815 148.552 260.623 148.945 260.256C149.387 259.841 149.619 259.316 149.619 258.674C149.619 257.98 149.21 257.629 148.414 257.629C148.056 257.629 147.756 257.753 147.49 257.961C147.49 257.542 147.774 256.915 148.359 256.047C148.891 255.246 149.407 254.62 149.938 254.152C150.061 254.012 150.095 253.891 150.041 253.786C150.026 253.699 149.938 253.68 149.795 253.767C149.122 254.167 148.394 254.933 147.632 256.047C146.744 257.3 146.32 258.377 146.32 259.282C146.32 260.29 146.782 260.815 147.721 260.815Z" fill="white"/>
<path d="M110.322 204.278C110.744 204.278 111.153 204.086 111.541 203.719C111.988 203.304 112.219 202.779 112.219 202.137C112.219 201.444 111.811 201.092 111.01 201.092C110.657 201.092 110.356 201.216 110.09 201.424C110.09 201.005 110.372 200.379 110.956 199.511C111.491 198.709 112.003 198.083 112.538 197.615C112.661 197.475 112.696 197.355 112.642 197.249C112.627 197.162 112.538 197.143 112.395 197.23C111.723 197.63 110.995 198.396 110.233 199.511C109.344 200.763 108.921 201.84 108.921 202.745C108.921 203.753 109.379 204.278 110.322 204.278Z" fill="white"/>
<path d="M158.716 157.795C158.716 158.576 158.377 159.448 157.739 160.437C157.084 161.464 156.215 162.336 155.167 163.065C154.759 163.344 154.513 163.499 154.44 163.499C154.424 163.499 154.424 163.484 154.424 163.465C154.424 163.412 154.602 163.19 154.937 162.824C156.677 160.977 157.546 159.743 157.546 159.116C157.546 158.542 157.261 158.247 156.711 158.247C156.392 158.247 156.126 158.316 155.876 158.489C155.683 158.614 155.575 158.681 155.522 158.681C155.487 158.663 155.452 158.629 155.399 158.629C155.417 158.561 155.452 158.402 155.506 158.142C155.772 156.873 156.426 156.247 157.438 156.247C158.288 156.247 158.716 156.768 158.716 157.795Z" fill="white"/>
<path d="M150.522 133.769C150.522 134.555 150.184 135.423 149.545 136.416C148.891 137.443 148.021 138.311 146.974 139.043C146.566 139.319 146.32 139.477 146.247 139.477C146.231 139.477 146.231 139.459 146.231 139.443C146.231 139.391 146.409 139.164 146.744 138.798C148.483 136.956 149.353 135.718 149.353 135.094C149.353 134.52 149.068 134.223 148.517 134.223C148.198 134.223 147.933 134.294 147.687 134.468C147.49 134.589 147.382 134.657 147.328 134.657C147.294 134.641 147.259 134.607 147.205 134.607C147.225 134.536 147.259 134.381 147.313 134.12C147.578 132.848 148.232 132.222 149.245 132.222C150.095 132.222 150.522 132.747 150.522 133.769Z" fill="white"/>
<path d="M137.292 86.3684C137.292 86.9425 137.045 87.6035 136.549 88.3506C136.052 89.117 135.414 89.778 134.633 90.3173C134.312 90.5251 134.136 90.6459 134.066 90.6459V90.6304C134.066 90.5782 134.189 90.4197 134.455 90.125C135.748 88.7507 136.406 87.8103 136.406 87.3581C136.406 86.9048 136.195 86.697 135.768 86.697C135.537 86.697 135.34 86.7502 135.148 86.8893C135.005 86.9763 134.917 87.0295 134.882 87.0295C134.863 87.0101 134.829 86.9918 134.794 86.9918C134.809 86.9425 134.843 86.8178 134.863 86.6294C135.075 85.6706 135.571 85.2019 136.333 85.2019C136.972 85.2019 137.292 85.5837 137.292 86.3684Z" fill="white"/>
<path d="M91.9537 144.587C90.9365 144.168 90.1585 143.78 89.6442 143.392C88.8432 142.818 88.2235 142.051 87.7615 141.092C87.4274 140.399 87.196 139.198 87.054 137.476C86.2966 139.074 85.2851 140.266 84.0206 141.069C85.45 141.493 86.4025 141.824 86.8767 142.067C87.658 142.487 88.0462 143.041 88.0462 143.74C88.0462 144.226 87.8698 144.834 87.5308 145.566C87.1073 146.4 86.592 147.115 85.9378 147.703C84.6403 148.855 82.6895 150.002 80.065 151.165C77.3173 152.385 75.1695 152.992 73.6307 152.992C71.5174 152.992 69.9243 152.298 68.8583 150.923C67.9726 149.79 67.5263 148.315 67.5263 146.487C67.5263 143.546 68.2386 140.972 69.6741 138.797C69.9588 138.345 70.1509 138.137 70.2593 138.137C70.2938 138.156 70.3125 138.19 70.3125 138.243C70.3125 138.383 70.2396 138.625 70.082 138.971C68.9657 141.32 68.416 143.286 68.416 144.869C68.416 146.261 68.7894 147.443 69.5312 148.417C70.5095 149.703 72.0139 150.35 74.0385 150.35C75.5272 150.35 77.3705 149.915 79.5872 149.043C81.2886 148.368 82.9744 147.529 84.6403 146.541C86.1496 145.669 86.8925 145.129 86.8925 144.921C86.8925 144.695 85.8649 144.294 83.8098 143.74C82.4088 143.373 81.0236 142.992 79.6414 142.607C79.2876 142.487 79.1449 142.26 79.2335 141.946C79.2876 141.667 79.3911 141.218 79.5527 140.591H79.5818C79.6706 140.521 80.1834 140.299 81.1309 139.93C82.8856 139.251 84.1438 138.625 84.9604 138.05C86.2728 137.129 86.9457 136.068 86.9457 134.902C86.9457 133.981 86.8767 132.014 86.7693 128.971C86.6264 125.351 86.4688 122.81 86.326 121.368C86.0413 118.654 85.7762 116.947 85.5644 116.272C85.7762 114.95 85.9378 114.184 86.0068 113.972C86.0757 113.784 86.1496 113.698 86.2029 113.698C86.253 113.698 86.326 113.784 86.3959 113.972C86.592 114.599 86.7536 115.173 86.8767 115.731C87.1418 116.914 87.3535 118.272 87.5151 119.835C87.7811 122.202 87.9732 125.264 88.0816 129.02C88.2048 132.747 88.3309 135.163 88.454 136.276C88.6855 138.397 89.1476 139.772 89.8205 140.433C90.5288 141.112 91.2914 141.633 92.053 142L92.073 142.008C92.9309 142.383 94.6988 142.592 97.3908 142.592C101.081 142.592 105.034 141.599 109.29 139.633C109.914 139.356 110.322 139.198 110.514 139.198C110.621 139.198 110.691 139.251 110.691 139.356C110.691 139.425 110.675 139.512 110.637 139.633C110.533 139.93 110.498 140.172 110.498 140.38C110.498 141.044 111.045 141.667 112.13 142.241C114.008 139.304 115.143 137.582 115.551 137.057C117.198 135.076 118.815 134.082 120.447 134.082C121.847 134.082 123.087 134.641 124.187 135.789C125.111 136.729 125.569 137.563 125.569 138.277C125.569 138.538 125.431 139.058 125.146 139.843C124.842 140.678 124.561 141.251 124.295 141.566C123.711 142.26 122.698 142.992 121.244 143.74C119.15 144.834 117.041 145.392 114.878 145.392C113.885 145.392 112.892 145.216 111.915 144.853C111.525 145.981 111.241 146.556 111.064 146.556C111.01 146.556 110.976 146.469 110.976 146.295C110.976 145.981 111.083 145.427 111.295 144.626C110.213 143.981 109.682 142.954 109.682 141.566C108.174 142.418 106.523 143.166 104.733 143.807C102.04 144.748 99.573 145.234 97.3208 145.234C94.8194 145.234 93.0648 145.027 92.053 144.626L91.9537 144.587ZM124.577 139.546C124.577 139.217 124.118 138.677 123.194 137.892C122.078 136.989 120.943 136.536 119.754 136.536C117.606 136.536 115.34 138.518 112.927 142.52C113.635 142.799 114.485 142.938 115.478 142.938C116.899 142.938 118.387 142.679 119.931 142.154C121.135 141.739 122.255 141.233 123.264 140.606C124.133 140.085 124.577 139.719 124.577 139.546Z" fill="white"/>
<path d="M100.423 114.652C100.423 113.799 100.28 113.104 100.034 112.565C100.034 112.252 100.28 111.523 100.777 110.375C100.831 110.236 100.904 110.163 100.958 110.163C100.993 110.163 101.062 110.236 101.136 110.375C101.273 110.688 101.593 111.523 102.128 112.862C102.659 114.271 102.979 115.139 103.068 115.472C103.155 115.713 103.191 115.886 103.191 116.011C103.191 116.411 102.802 116.185 102.04 115.298C101.951 115.192 101.913 115.26 101.913 115.472C101.913 115.558 102.074 117.698 102.374 121.908C102.694 126.099 102.856 128.533 102.856 129.213C102.856 131.266 102.536 133.075 101.897 134.623C101.754 134.955 101.647 135.181 101.578 135.336C101.455 135.544 101.366 135.563 101.346 135.423C101.312 135.268 101.328 134.936 101.382 134.43C101.455 133.72 101.505 132.902 101.505 131.946C101.505 131.108 101.312 128.205 100.958 123.21C100.601 118.235 100.423 115.385 100.423 114.652Z" fill="white"/>
<path d="M111.188 126.638C110.744 125.283 110.425 124.01 110.267 122.829C110.213 122.376 110.16 122.097 110.126 121.995C110.071 121.734 109.948 121.508 109.771 121.263C109.894 120.863 110.09 120.289 110.356 119.56C110.445 119.348 110.533 119.247 110.602 119.247C110.675 119.247 110.78 119.348 110.941 119.56C111.649 120.534 112.254 121.402 112.73 122.168C112.927 122.481 113.035 122.709 113.035 122.829C113.035 122.935 112.981 122.984 112.892 122.984C112.715 122.984 112.395 122.829 111.915 122.55C111.88 122.55 111.846 122.568 111.811 122.637C111.988 123.21 112.234 123.996 112.589 125.004C113.404 127.265 113.812 128.9 113.812 129.927C113.812 130.953 113.655 131.86 113.334 132.622C112.819 133.928 111.915 134.589 110.621 134.589C109.256 134.589 108.194 133.997 107.393 132.833C106.916 132.135 106.508 131.093 106.134 129.7C105.977 131.108 105.515 132.328 104.768 133.336C103.864 134.555 102.694 135.181 101.259 135.181C99.6962 135.181 98.5986 134.431 97.9602 132.969C97.6065 132.135 97.444 131.161 97.444 130.048C97.444 128.553 97.6213 127.178 97.976 125.909C98.0637 125.559 98.1179 125.336 98.1179 125.212C98.1179 125.158 98.1021 125.125 98.0637 125.125C98.0144 125.125 97.8528 125.299 97.641 125.63C97.2863 126.17 96.9129 127.265 96.5248 128.919C96.0243 131.04 95.709 132.308 95.5474 132.761C95.3356 133.369 95.0509 133.856 94.6775 134.223C94.3583 134.536 94.112 134.694 93.8805 134.694C92.8687 134.694 92.0914 134.068 91.5406 132.815C91.0943 131.769 90.8825 130.519 90.8825 129.04C90.8825 128.012 91.0441 126.899 91.3643 125.683C91.4332 125.422 91.5022 125.212 91.5751 125.071C91.6835 124.917 91.7337 124.898 91.7721 125.022C91.8066 125.158 91.7869 125.404 91.718 125.77C91.5406 126.691 91.452 127.525 91.452 128.292C91.452 131.266 92.0913 132.761 93.3652 132.761C93.915 132.761 94.3583 132.361 94.7317 131.546C94.9425 131.059 95.2273 130.1 95.5474 128.692C95.9208 127.125 96.2401 125.996 96.4864 125.264C96.7898 124.43 97.1593 123.697 97.5868 123.056C98.0637 122.342 98.4912 121.976 98.8302 121.976C99.1297 121.976 99.2725 122.275 99.2725 122.883C99.2725 123.369 99.1297 124.377 98.845 125.891C98.5602 127.404 98.4223 128.412 98.4223 128.933C98.4223 130.066 98.6489 130.935 99.1297 131.58C99.6075 132.207 100.28 132.535 101.136 132.535C102.659 132.535 103.829 132.048 104.591 131.093C105.196 130.345 105.515 129.42 105.515 128.325C105.515 127.265 105.426 126.238 105.23 125.245C105.107 124.551 104.945 123.89 104.734 123.263C104.556 122.723 104.468 122.463 104.468 122.497C104.468 121.889 104.665 121.073 105.072 120.009C105.161 119.786 105.23 119.681 105.284 119.681C105.353 119.681 105.442 119.821 105.603 120.134C106.169 121.297 106.631 123.089 106.95 125.509C107.269 127.786 107.712 129.406 108.317 130.379C108.901 131.353 109.787 131.84 110.995 131.84C112.003 131.84 112.661 131.474 112.981 130.761C112.981 130.519 112.765 129.979 112.342 129.179C111.811 128.153 111.418 127.299 111.188 126.638Z" fill="white"/>
<path d="M109.929 115.385C109.929 115.732 109.841 116.079 109.698 116.445C109.486 116.932 109.221 117.174 108.882 117.174C108.37 117.174 108.016 116.827 107.8 116.132C107.554 117.001 107.108 117.453 106.454 117.453C106.203 117.453 105.992 117.332 105.815 117.087C105.603 116.811 105.515 116.445 105.515 115.973V114.898C105.515 114.811 105.442 114.758 105.319 114.724C105.196 114.686 105.141 114.585 105.141 114.445C105.141 114.199 105.23 113.973 105.442 113.731C105.638 113.539 105.78 113.437 105.888 113.437C106.011 113.437 106.08 113.678 106.08 114.15C106.08 114.391 106.046 114.599 106.011 114.773C105.977 114.932 105.957 115.086 105.957 115.211C105.957 115.453 106.011 115.698 106.115 115.94C106.242 116.219 106.4 116.359 106.597 116.359C106.843 116.359 107.073 116.238 107.289 116.027C107.501 115.819 107.608 115.558 107.608 115.26C107.608 115.106 107.554 114.811 107.447 114.411C107.338 114.011 107.289 113.75 107.289 113.663C107.289 113.577 107.338 113.437 107.427 113.244C107.516 113.052 107.589 112.965 107.624 112.965C107.712 112.965 107.82 113.225 107.943 113.765C108.085 114.305 108.155 114.705 108.155 114.965C108.155 115.698 108.44 116.079 109.024 116.079C109.274 116.079 109.432 115.94 109.486 115.698C108.99 114.826 108.739 114.165 108.739 113.712C108.739 113.452 108.794 113.21 108.936 113.017C109.024 112.862 109.098 112.791 109.132 112.791C109.167 112.791 109.186 112.878 109.201 113.052C109.236 113.297 109.274 113.504 109.325 113.663C109.344 113.678 109.467 113.973 109.698 114.565C109.841 114.932 109.929 115.192 109.929 115.385Z" fill="white"/>
<path d="M104.094 111.624C105.85 111.017 107.747 110.356 109.805 109.662C109.948 109.608 110.017 109.59 110.052 109.608C110.09 109.624 110.09 109.695 110.017 109.816C109.86 110.216 109.732 110.442 109.629 110.511C107.909 111.104 105.923 111.889 103.652 112.844C103.74 112.462 103.898 112.062 104.094 111.624Z" fill="white"/>
<path d="M97.2863 118.322C97.3563 118.061 97.375 117.801 97.3366 117.559C97.2863 117.28 97.1445 117.124 96.9484 117.124C96.84 117.124 96.7021 117.174 96.5405 117.261C96.3632 117.366 96.2745 117.453 96.2745 117.54C96.2745 117.748 96.6134 118.012 97.2863 118.322ZM96.7711 119.455C95.9356 119.035 95.513 118.586 95.513 118.114C95.513 117.559 95.778 117.035 96.309 116.566C96.84 116.098 97.2863 115.94 97.6213 116.06C97.9257 116.166 98.0637 116.48 98.0637 117.001C98.0637 117.453 97.976 117.993 97.7829 118.567C98.2065 118.813 98.4568 119.001 98.5799 119.175C98.5799 119.401 98.3838 119.768 98.0144 120.307C97.906 120.134 97.641 119.922 97.2331 119.7C96.7711 120.322 96.1859 120.896 95.4588 121.421C94.643 122.01 93.9002 122.463 93.2076 122.762C93.0647 122.829 92.2835 123.124 90.848 123.648C90.6175 123.717 90.4746 123.769 90.4057 123.769C90.3712 123.769 90.3515 123.75 90.3515 123.735C90.3515 123.683 90.4746 123.576 90.7249 123.422C91.7869 122.796 92.8529 122.184 93.915 121.56C95.1928 120.794 96.1317 120.1 96.7711 119.455Z" fill="white"/>
<path d="M93.7731 114.705C93.7731 115.052 93.6844 115.399 93.5425 115.766C93.3307 116.253 93.0647 116.498 92.7258 116.498C92.2145 116.498 91.8608 116.147 91.645 115.452C91.3987 116.324 90.9564 116.774 90.2983 116.774C90.052 116.774 89.8362 116.653 89.6589 116.411C89.4471 116.132 89.3584 115.766 89.3584 115.298V114.218C89.3584 114.131 89.2855 114.078 89.1623 114.044C89.0392 114.011 88.986 113.904 88.986 113.765C88.986 113.523 89.0737 113.297 89.2855 113.052C89.4815 112.862 89.6244 112.757 89.7318 112.757C89.8549 112.757 89.9249 112.999 89.9249 113.47C89.9249 113.712 89.8904 113.924 89.8549 114.098C89.8205 114.252 89.8017 114.411 89.8017 114.531C89.8017 114.773 89.8549 115.019 89.9633 115.26C90.0864 115.539 90.2441 115.679 90.4401 115.679C90.6864 115.679 90.917 115.558 91.1327 115.351C91.3446 115.139 91.452 114.878 91.452 114.585C91.452 114.426 91.3988 114.131 91.2904 113.731C91.1869 113.331 91.1327 113.07 91.1327 112.983C91.1327 112.896 91.1869 112.757 91.2756 112.565C91.3643 112.375 91.4332 112.289 91.4677 112.289C91.5564 112.289 91.6638 112.549 91.7869 113.086C91.9298 113.625 91.9987 114.025 91.9987 114.286C91.9987 115.019 92.2835 115.399 92.8687 115.399C93.1189 115.399 93.2765 115.26 93.3307 115.019C92.8342 114.15 92.5879 113.486 92.5879 113.036C92.5879 112.775 92.6381 112.531 92.78 112.338C92.8687 112.183 92.9416 112.112 92.9761 112.112C93.0106 112.112 93.0302 112.198 93.046 112.375C93.0844 112.617 93.1189 112.825 93.1731 112.983C93.1879 112.999 93.311 113.297 93.5425 113.886C93.6844 114.252 93.7731 114.512 93.7731 114.705Z" fill="white"/>
<path d="M88.3663 111.45C90.1209 110.843 92.0184 110.182 94.0775 109.488C94.2154 109.434 94.2883 109.416 94.3238 109.434C94.3583 109.45 94.3583 109.521 94.2884 109.642C94.1268 110.042 94.0036 110.269 93.9002 110.337C92.18 110.93 90.1899 111.711 87.9229 112.67C88.0116 112.289 88.1692 111.889 88.3663 111.45Z" fill="white"/>
<path d="M116.225 130.572C117.98 129.961 119.877 129.3 121.936 128.605C122.078 128.553 122.148 128.533 122.183 128.553C122.221 128.571 122.221 128.64 122.148 128.76C121.99 129.16 121.863 129.387 121.759 129.458C120.039 130.048 118.053 130.832 115.783 131.787C115.871 131.406 116.029 131.006 116.225 130.572Z" fill="white"/>
<path d="M110.922 149.67C113.423 148.783 116.067 147.828 118.869 146.836C119.027 146.783 119.1 146.767 119.134 146.783C119.169 146.802 119.15 146.87 119.1 146.99C118.938 147.39 118.815 147.617 118.708 147.704C116.368 148.542 113.619 149.583 110.479 150.871C110.568 150.505 110.729 150.104 110.922 149.67Z" fill="white"/>
<path d="M91.7524 168.025L92.445 166.652C92.4992 166.545 92.5495 166.493 92.6224 166.493C92.711 166.493 93.0992 166.719 93.7731 167.173C94.4657 167.625 94.8046 167.901 94.8046 167.973C94.8046 168.286 94.5002 168.894 93.9002 169.849C93.8273 169.973 93.7573 169.989 93.6687 169.936C93.0844 169.502 92.4066 169.048 91.6638 168.581C91.4135 169.135 91.1672 169.607 90.917 169.989C90.848 170.11 90.779 170.147 90.6864 170.094C90.0135 169.589 89.3239 169.12 88.6126 168.668C88.5771 168.648 88.5771 168.599 88.6126 168.512L89.4667 166.787C89.517 166.685 89.5702 166.632 89.6441 166.632C89.7318 166.632 90.052 166.825 90.6175 167.187C91.2027 167.573 91.5751 167.848 91.7524 168.025Z" fill="white"/>
<path d="M91.0598 153.446C91.0598 153.932 90.8825 154.401 90.5475 154.854C90.1751 155.34 89.7475 155.586 89.251 155.586C88.7397 155.586 88.4894 155.34 88.4894 154.854C88.4894 154.506 88.6855 153.985 89.0933 153.325C89.5012 152.645 89.8362 152.317 90.1209 152.317C90.3712 152.317 90.5978 152.419 90.779 152.627C90.9564 152.853 91.0598 153.114 91.0598 153.446ZM90.6175 154.001C90.6175 153.552 90.2983 153.325 89.6589 153.325C89.5702 153.325 89.4126 153.465 89.1968 153.74C88.986 154.019 88.8776 154.227 88.8776 154.332C88.9505 154.492 89.1968 154.578 89.6047 154.578C90.2825 154.578 90.6175 154.386 90.6175 154.001Z" fill="white"/>
<path d="M70.1705 172.635C72.6719 171.748 75.3123 170.789 78.1132 169.799C78.2748 169.747 78.3447 169.728 78.3832 169.747C78.4176 169.762 78.3979 169.834 78.3447 169.955C78.1871 170.355 78.064 170.581 77.9556 170.668C75.6157 171.502 72.864 172.548 69.7281 173.835C69.8168 173.469 69.9744 173.069 70.1705 172.635Z" fill="white"/>
<path d="M101.293 163.797C102.143 164.178 103.918 164.386 106.631 164.386C109.663 164.386 112.45 163.865 114.982 162.857C113.865 162.265 112.908 161.501 112.145 160.542C111.118 159.308 110.621 157.968 110.621 156.507C110.621 155.026 111.137 153.827 112.199 152.89C113.423 151.792 114.878 151.252 116.564 151.252C117.645 151.252 118.726 151.464 119.861 151.897C120.747 152.227 121.455 152.611 122.005 153.026C122.467 153.377 122.679 153.604 122.679 153.671C122.679 153.706 122.663 153.725 122.609 153.725C122.521 153.725 122.324 153.671 122.005 153.585C121.101 153.325 120.054 153.204 118.869 153.204C117.237 153.204 115.659 153.412 114.131 153.864C112.676 154.28 111.88 154.714 111.757 155.152C111.915 156.314 112.642 157.553 113.901 158.855C115.39 160.388 116.972 161.15 118.638 161.15C119.134 161.15 120.196 160.788 121.828 160.09C125.003 158.716 126.635 158.021 126.777 157.968C127.058 157.847 127.24 157.813 127.308 157.863C127.377 157.934 127.343 158.088 127.201 158.349L126.315 160.162C126.227 160.335 126.065 160.475 125.853 160.562C124.33 161.17 121.047 162.578 115.975 164.77C112.538 166.285 109.397 167.032 106.561 167.032C104.06 167.032 102.305 166.824 101.293 166.424L101.194 166.384C100.174 165.965 99.3594 165.574 98.845 165.186C98.0489 164.612 97.4292 163.849 96.9671 162.891C96.7169 162.369 96.5248 161.448 96.3436 160.108C96.3436 161.83 95.8854 163.099 94.9623 163.971C94.2539 164.632 93.4007 164.963 92.4263 164.963H92.3916C91.6636 164.957 91.0358 164.765 90.5092 164.404C89.8017 163.937 89.3741 163.19 89.251 162.162C88.9702 162.736 88.454 163.344 87.7269 163.971C86.6462 164.892 85.4718 165.364 84.2669 165.364H84.1815C83.3067 165.36 82.6774 165.307 82.3004 165.186C81.4315 164.945 80.7231 164.386 80.1537 163.537C79.7842 162.944 79.4257 162.369 79.0719 161.762C78.7527 161.274 78.4178 161.029 78.0985 161.029C77.0858 161.029 76.0395 161.863 74.9232 163.537C74.7271 163.831 74.3735 164.612 73.8572 165.865C73.3459 167.119 72.9025 168.04 72.5292 168.599C71.9253 169.467 71.3056 169.901 70.6327 169.901C69.6544 169.901 68.8238 169.134 68.1312 167.624C67.5263 166.285 67.2258 164.892 67.2258 163.45C67.2258 161.709 67.4031 160.316 67.7578 159.274C67.8652 158.908 67.9726 158.734 68.0612 158.734C68.1657 158.734 68.1845 158.961 68.1312 159.413C67.9884 160.524 67.9194 161.463 67.9194 162.23C67.9194 165.918 68.7894 167.761 70.5243 167.761C71.2169 167.761 71.8711 167.224 72.4562 166.145C73.0602 164.857 73.6651 163.57 74.2651 162.283C74.8158 161.237 75.474 160.316 76.2552 159.569C77.0326 158.802 77.7439 158.439 78.398 158.439C78.8798 158.439 79.3222 158.735 79.7457 159.327C80.0838 159.882 80.4186 160.422 80.7576 160.962C81.2542 161.637 81.7506 162.091 82.266 162.336C82.7783 162.596 83.4364 162.716 84.2669 162.716H84.3375C85.8151 162.705 87.07 162.304 88.0816 161.517C88.1693 161.448 88.5772 161.029 89.2855 160.249C89.9437 159.534 90.2983 159.187 90.3712 159.187C90.4746 159.187 90.5476 159.274 90.5476 159.447C90.5476 159.534 90.5288 159.637 90.4944 159.742C90.386 160.09 90.3328 160.388 90.3328 160.663C90.3328 161.762 91.0442 162.317 92.4451 162.317C93.1534 162.317 93.8076 162.162 94.377 161.83C94.9426 161.517 95.3357 161.083 95.5278 160.542C95.6706 160.176 95.7435 159.587 95.7435 158.768C95.7435 154.978 95.513 151.29 95.0697 147.687C94.9081 146.469 94.643 144.766 94.2352 142.574C94.4115 141.479 94.5888 140.693 94.7504 140.278C94.8194 140.085 94.8933 139.998 94.9425 139.998C94.9968 139.998 95.0697 140.104 95.1199 140.293C95.8854 142.679 96.4706 146.208 96.8784 150.889C97.2479 155.046 97.4794 157.447 97.5672 158.074C97.8874 160.214 98.3681 161.588 99.0419 162.23C99.7383 162.898 100.488 163.415 101.257 163.779L101.293 163.797Z" fill="white"/>
<path d="M128.017 178.792C128.017 180.88 127.505 182.48 126.493 183.609C125.358 184.882 123.337 186.308 120.462 187.89C117.926 189.318 116.456 190.031 116.013 190.031C115.906 190.031 114.612 190.326 112.111 190.933C109.452 191.56 107.786 191.926 107.128 192.031C106.399 192.152 105.957 192.205 105.8 192.205C105.727 192.205 105.692 192.186 105.672 192.152C105.672 192.1 106.153 191.839 107.146 191.405C107.481 191.247 109.54 190.378 113.281 188.811C115.871 187.732 118.034 186.743 119.774 185.822C122.36 184.444 124.33 183.246 125.677 182.201C126.705 181.434 127.22 180.88 127.22 180.533C126.989 180.166 126.758 179.921 126.512 179.8C126.119 179.592 125.431 179.487 124.438 179.487C122.324 179.487 121.278 178.774 121.278 177.366C121.278 176.271 121.632 175.312 122.344 174.477C123.018 173.711 123.711 173.33 124.418 173.33C125.377 173.33 126.247 174.009 127.008 175.383C127.682 176.584 128.017 177.713 128.017 178.792ZM125.534 176.912C124.915 176.077 124.345 175.677 123.814 175.677C123.033 175.677 122.645 175.885 122.645 176.304C122.645 176.792 123.176 177.052 124.276 177.052C124.664 177.052 125.092 176.999 125.534 176.912Z" fill="white"/>
<path d="M81.8739 176.737C83.6294 176.009 84.5369 175.017 84.5369 173.781C84.5369 172.008 84.4639 170.181 84.2866 168.319C84.1289 166.439 83.9132 164.752 83.6669 163.204C83.9477 161.83 84.1289 161.063 84.1792 160.925C84.2669 160.75 84.3408 160.649 84.394 160.649C84.4443 160.649 84.5171 160.75 84.5713 160.942C85.0836 162.803 85.4757 165.204 85.7417 168.145C86.0264 171.223 86.2373 173.121 86.3604 173.868C86.661 175.745 87.1575 176.999 87.8353 177.645C88.5427 178.32 89.2855 178.844 90.052 179.207L90.0582 179.221L90.0668 179.207C90.917 179.592 92.6914 179.799 95.4046 179.799C99.1839 179.799 103.136 178.807 107.304 176.843C107.465 176.772 107.589 176.737 107.643 176.737C107.712 176.737 107.747 176.772 107.747 176.878C107.747 176.964 107.731 177.104 107.677 177.346C107.624 177.572 107.589 177.745 107.589 177.886C107.589 178.739 108.228 179.174 109.521 179.174C110.637 179.174 111.541 178.704 112.254 177.783C112.715 177.085 113.158 176.391 113.619 175.696C113.778 175.522 113.901 175.435 114.028 175.435C114.151 175.435 114.204 175.538 114.204 175.729C114.204 175.798 114.186 175.884 114.166 175.991C113.988 176.737 113.901 177.07 113.901 176.999C113.901 177.312 114.062 177.609 114.382 177.851C114.735 178.146 115.163 178.286 115.64 178.286C116.245 178.286 116.653 178.131 116.829 177.799C116.829 177.783 116.633 177.433 116.245 176.791C116.294 176.409 116.475 175.817 116.721 174.983C116.79 174.737 116.883 174.617 116.972 174.617C117.041 174.617 117.129 174.684 117.252 174.843C117.626 175.364 117.822 175.956 117.822 176.633C117.822 177.712 117.572 178.653 117.095 179.419C116.544 180.359 115.763 180.827 114.735 180.827C114.008 180.827 113.354 180.305 112.75 179.26C111.792 180.966 110.533 181.819 108.971 181.819C107.304 181.819 106.434 181.019 106.385 179.433C105.034 180.132 103.544 180.74 101.897 181.261C99.4843 182.046 97.3021 182.446 95.3357 182.446C92.8342 182.446 91.0795 182.235 90.0668 181.835L90.0634 181.828L90.052 181.853C88.986 181.419 88.189 181 87.658 180.6C86.857 180.025 86.2373 179.26 85.7762 178.305C85.4413 177.609 85.2107 176.338 85.0678 174.53C84.6946 176.858 83.6124 178.376 81.8739 179.104C82.302 179.403 83.0094 179.953 83.9477 180.758C84.2324 181.034 84.394 181.313 84.394 181.574C84.394 181.766 84.3063 182.2 84.1289 182.861C83.9477 183.541 83.8098 183.869 83.6669 183.869C83.594 183.869 83.4512 183.802 83.2748 183.681C82.3359 183.141 81.2196 182.861 79.9418 182.861C78.1133 182.861 75.67 184.062 72.6178 186.429C71.0751 187.715 69.5312 189.018 67.9884 190.325C66.6219 191.438 65.5796 191.993 64.8859 191.993C63.9816 191.993 63.2003 191.593 62.5076 190.777C61.8347 189.977 61.4998 188.984 61.4998 187.802C61.4998 186.169 62.1737 184.047 63.5392 181.434C63.6821 181.174 63.8052 181.034 63.8939 181.034C63.9283 181.034 63.947 181.071 63.947 181.14C63.947 181.419 63.6436 182.321 63.0584 183.889C62.4584 185.435 62.1737 186.67 62.1737 187.595C62.1737 188.271 62.3313 188.844 62.6692 189.264C63.0239 189.698 63.5007 189.925 64.1244 189.925C65.0091 189.925 66.0751 189.404 67.3145 188.377C68.5736 187.282 69.8514 186.169 71.1095 185.055C74.338 182.374 76.8207 180.894 78.5606 180.585C78.0444 180.426 77.7251 180.321 77.6168 180.272C77.4591 180.185 77.4247 180.079 77.4936 179.921L78.2404 178.079C78.3104 177.938 78.6985 177.765 79.4108 177.558C80.4578 177.236 81.271 176.981 81.8214 176.759L81.8739 176.737Z" fill="white"/>
<path d="M119.061 171.415C121.563 170.528 124.207 169.573 127.008 168.581C127.166 168.528 127.24 168.512 127.274 168.528C127.309 168.547 127.289 168.614 127.24 168.735C127.078 169.135 126.955 169.362 126.847 169.449C124.507 170.286 121.759 171.328 118.619 172.616C118.708 172.25 118.869 171.849 119.061 171.415Z" fill="white"/>
<path d="M106.488 172.861C108.99 171.974 111.634 171.015 114.436 170.023C114.593 169.973 114.666 169.955 114.701 169.973C114.735 169.989 114.717 170.06 114.666 170.181C114.505 170.581 114.382 170.807 114.274 170.894C111.934 171.728 109.186 172.775 106.046 174.062C106.134 173.696 106.296 173.296 106.488 172.861Z" fill="white"/>
<path d="M85.6875 156.473C85.6875 156.821 85.5988 157.168 85.4569 157.534C85.2451 158.021 84.9791 158.263 84.6402 158.263C84.1289 158.263 83.7713 157.916 83.5594 157.221C83.3131 158.089 82.8668 158.542 82.2127 158.542C81.9624 158.542 81.7506 158.421 81.5733 158.176C81.3615 157.901 81.2728 157.534 81.2728 157.063V155.986C81.2728 155.9 81.1999 155.847 81.0767 155.813C80.9536 155.779 80.9004 155.673 80.9004 155.534C80.9004 155.288 80.9881 155.065 81.1999 154.82C81.3959 154.627 81.5388 154.526 81.6422 154.526C81.7693 154.526 81.8393 154.767 81.8393 155.239C81.8393 155.481 81.8038 155.688 81.7693 155.865C81.7309 156.021 81.7161 156.175 81.7161 156.3C81.7161 156.542 81.7693 156.787 81.8738 157.029C82.0008 157.308 82.1585 157.447 82.3545 157.447C82.6008 157.447 82.8314 157.326 83.0432 157.115C83.259 156.908 83.3634 156.647 83.3634 156.352C83.3634 156.194 83.3132 155.9 83.2048 155.5C83.0974 155.099 83.0432 154.839 83.0432 154.752C83.0432 154.665 83.0974 154.526 83.186 154.332C83.2747 154.14 83.3476 154.053 83.3821 154.053C83.4708 154.053 83.5782 154.314 83.7013 154.854C83.8442 155.394 83.9131 155.794 83.9131 156.055C83.9131 156.787 84.1979 157.168 84.7831 157.168C85.0333 157.168 85.1909 157.029 85.2451 156.787C84.7486 155.914 84.4983 155.254 84.4983 154.801C84.4983 154.54 84.5525 154.299 84.6944 154.106C84.7831 153.952 84.852 153.88 84.8905 153.88C84.9249 153.88 84.9407 153.967 84.9604 154.14C84.9949 154.386 85.0333 154.593 85.0836 154.752C85.1023 154.767 85.2254 155.065 85.4569 155.655C85.5988 156.021 85.6875 156.281 85.6875 156.473Z" fill="white"/>
<path d="M72.1212 176.844C74.6227 175.957 77.263 174.998 80.0649 174.009C80.2265 173.956 80.2955 173.938 80.33 173.956C80.3684 173.971 80.3497 174.043 80.2955 174.164C80.1379 174.564 80.0107 174.79 79.9073 174.877C77.5674 175.712 74.8158 176.758 71.6789 178.045C71.7675 177.679 71.9252 177.279 72.1212 176.844Z" fill="white"/>
<path d="M91.7337 138.417C93.4923 137.805 95.3898 137.144 97.444 136.45C97.5868 136.397 97.6558 136.382 97.6942 136.397C97.7297 136.416 97.7297 136.484 97.6558 136.605C97.4982 137.005 97.375 137.231 97.2676 137.303C95.5474 137.892 93.5613 138.677 91.2904 139.633C91.379 139.251 91.5406 138.851 91.7337 138.417Z" fill="white"/>
<path d="M79.2876 153.272C81.0422 152.664 82.9397 152.003 84.9949 151.306C85.1368 151.252 85.2106 151.237 85.2451 151.252C85.2796 151.272 85.2796 151.339 85.2106 151.464C85.0481 151.864 84.9249 152.09 84.8176 152.158C83.0974 152.751 81.1112 153.532 78.8413 154.492C78.9299 154.106 79.0915 153.706 79.2876 153.272Z" fill="white"/>
<path d="M63.5006 173.156C63.5006 173.609 63.3085 174.111 62.9351 174.685C62.546 175.277 62.0504 175.798 61.4455 176.217C61.1962 176.391 61.0573 176.478 61.0031 176.478V176.459C61.0031 176.425 61.0918 176.285 61.3036 176.077C62.2967 174.998 62.812 174.285 62.812 173.922C62.812 173.571 62.6346 173.417 62.3154 173.417C62.1381 173.417 61.9765 173.451 61.8347 173.556C61.7302 173.624 61.6573 173.661 61.6416 173.661C61.6228 173.643 61.6041 173.624 61.5686 173.624C61.5883 173.59 61.6041 173.503 61.6228 173.348C61.7805 172.616 62.1736 172.25 62.7578 172.25C63.2543 172.25 63.5006 172.548 63.5006 173.156Z" fill="white"/>
<path d="M120.588 111.093C120.588 111.777 120.291 112.541 119.727 113.408C119.141 114.303 118.391 115.089 117.478 115.717C117.106 115.984 116.891 116.115 116.809 116.115V116.088C116.809 116.037 116.943 115.825 117.263 115.511C118.763 113.881 119.541 112.803 119.541 112.25C119.541 111.726 119.274 111.491 118.792 111.491C118.525 111.491 118.28 111.544 118.071 111.697C117.908 111.805 117.798 111.856 117.775 111.856C117.745 111.828 117.722 111.805 117.664 111.805C117.693 111.754 117.722 111.623 117.745 111.383C117.989 110.283 118.577 109.729 119.46 109.729C120.21 109.729 120.588 110.175 120.588 111.093Z" fill="white"/>
<path d="M62.5735 161.419C62.7538 161.419 62.9273 161.343 63.0809 161.192C63.274 161.022 63.3627 160.808 63.3627 160.543C63.3627 160.252 63.1972 160.109 62.8622 160.109C62.7154 160.109 62.5923 160.158 62.477 160.241C62.4888 160.071 62.6041 159.807 62.8425 159.448C63.0622 159.12 63.2849 158.855 63.4967 158.667C63.5548 158.61 63.5735 158.554 63.543 158.516C63.5351 158.478 63.4967 158.467 63.4395 158.505C63.1588 158.675 62.8622 158.988 62.5351 159.448C62.1805 159.97 61.9962 160.422 61.9883 160.796C61.9962 161.212 62.1883 161.419 62.5735 161.419Z" fill="white"/>
</svg>
